<mxfile host="65bd71144e">
    <diagram id="5cV5WibyDMCfgt4raN4z" name="Page-1">
        <mxGraphModel dx="1222" dy="2045" grid="1" gridSize="10" guides="1" tooltips="1" connect="1" arrows="1" fold="1" page="1" pageScale="1" pageWidth="850" pageHeight="1100" background="none" math="0" shadow="1">
            <root>
                <mxCell id="0"/>
                <mxCell id="1" parent="0"/>
                <mxCell id="19" style="edgeStyle=none;html=1;entryX=0.5;entryY=0;entryDx=0;entryDy=0;" edge="1" parent="1" source="5" target="10">
                    <mxGeometry relative="1" as="geometry"/>
                </mxCell>
                <mxCell id="5" value="&lt;font style=&quot;font-size: 16px&quot;&gt;My Playlists&lt;/font&gt;" style="whiteSpace=wrap;html=1;fontSize=24;strokeWidth=1;rounded=1;glass=1;fillColor=#d80073;fontColor=#ffffff;strokeColor=#A50040;" vertex="1" parent="1">
                    <mxGeometry x="280" y="-40" width="120" height="40" as="geometry"/>
                </mxCell>
                <mxCell id="6" value="&lt;span style=&quot;font-size: 16px&quot;&gt;Approve/Disapprove&lt;br&gt;Playlists&lt;br&gt;&lt;/span&gt;" style="whiteSpace=wrap;html=1;fontSize=24;strokeWidth=1;rounded=1;glass=1;fillColor=#e3c800;fontColor=#000000;strokeColor=#B09500;" vertex="1" parent="1">
                    <mxGeometry x="565" y="360" width="165" height="60" as="geometry"/>
                </mxCell>
                <mxCell id="11" value="" style="edgeStyle=none;html=1;" edge="1" parent="1" source="9" target="10">
                    <mxGeometry relative="1" as="geometry"/>
                </mxCell>
                <mxCell id="9" value="&lt;font style=&quot;font-size: 20px&quot;&gt;User&lt;/font&gt;" style="whiteSpace=wrap;html=1;fontSize=24;strokeWidth=1;rounded=1;glass=1;fillColor=#1ba1e2;strokeColor=#006EAF;fontColor=#ffffff;" vertex="1" parent="1">
                    <mxGeometry x="30" y="80" width="120" height="40" as="geometry"/>
                </mxCell>
                <mxCell id="31" style="edgeStyle=none;html=1;entryX=0.5;entryY=1;entryDx=0;entryDy=0;" edge="1" parent="1" source="10" target="27">
                    <mxGeometry relative="1" as="geometry"/>
                </mxCell>
                <mxCell id="10" value="App" style="whiteSpace=wrap;html=1;fontSize=24;fillColor=#d80073;strokeColor=#A50040;fontColor=#ffffff;strokeWidth=1;rounded=1;glass=1;" vertex="1" parent="1">
                    <mxGeometry x="280" y="70" width="120" height="60" as="geometry"/>
                </mxCell>
                <mxCell id="12" value="Login" style="text;html=1;align=center;verticalAlign=middle;resizable=0;points=[];autosize=1;strokeColor=none;fillColor=none;" vertex="1" parent="1">
                    <mxGeometry x="185" y="70" width="50" height="20" as="geometry"/>
                </mxCell>
                <mxCell id="28" value="" style="edgeStyle=none;html=1;" edge="1" parent="1" source="13" target="27">
                    <mxGeometry relative="1" as="geometry"/>
                </mxCell>
                <mxCell id="13" value="&lt;font style=&quot;font-size: 16px&quot;&gt;Take Quiz&lt;/font&gt;" style="whiteSpace=wrap;html=1;fontSize=24;strokeWidth=1;rounded=1;glass=1;fillColor=#008a00;fontColor=#ffffff;strokeColor=#005700;" vertex="1" parent="1">
                    <mxGeometry x="680" y="-40" width="120" height="40" as="geometry"/>
                </mxCell>
                <mxCell id="17" style="edgeStyle=none;html=1;entryX=0.5;entryY=1;entryDx=0;entryDy=0;" edge="1" parent="1" source="16" target="10">
                    <mxGeometry relative="1" as="geometry"/>
                </mxCell>
                <mxCell id="23" style="edgeStyle=none;html=1;entryX=0;entryY=0.5;entryDx=0;entryDy=0;" edge="1" parent="1" source="16" target="20">
                    <mxGeometry relative="1" as="geometry"/>
                </mxCell>
                <mxCell id="16" value="&lt;font style=&quot;font-size: 16px&quot;&gt;Add Playlist&lt;/font&gt;" style="whiteSpace=wrap;html=1;fontSize=24;strokeWidth=1;rounded=1;glass=1;fillColor=#d80073;fontColor=#ffffff;strokeColor=#A50040;" vertex="1" parent="1">
                    <mxGeometry x="280" y="200" width="120" height="40" as="geometry"/>
                </mxCell>
                <mxCell id="25" style="edgeStyle=none;html=1;entryX=0.5;entryY=1;entryDx=0;entryDy=0;" edge="1" parent="1" source="20" target="5">
                    <mxGeometry relative="1" as="geometry"/>
                </mxCell>
                <mxCell id="29" style="edgeStyle=none;html=1;" edge="1" parent="1" source="20" target="6">
                    <mxGeometry relative="1" as="geometry"/>
                </mxCell>
                <mxCell id="20" value="Admin&lt;br&gt;Panel" style="ellipse;whiteSpace=wrap;html=1;fontSize=24;fillColor=#e3c800;strokeColor=#B09500;fontColor=#000000;strokeWidth=1;rounded=1;glass=1;gradientColor=#ffffff;" vertex="1" parent="1">
                    <mxGeometry x="580" y="185" width="130" height="70" as="geometry"/>
                </mxCell>
                <mxCell id="24" value="Request approval" style="text;html=1;align=center;verticalAlign=middle;resizable=0;points=[];autosize=1;strokeColor=none;fillColor=none;" vertex="1" parent="1">
                    <mxGeometry x="425" y="190" width="110" height="20" as="geometry"/>
                </mxCell>
                <mxCell id="26" value="Approved Playlists" style="text;html=1;align=center;verticalAlign=middle;resizable=0;points=[];autosize=1;strokeColor=none;fillColor=none;rotation=30;" vertex="1" parent="1">
                    <mxGeometry x="460" y="90" width="110" height="20" as="geometry"/>
                </mxCell>
                <mxCell id="36" style="edgeStyle=none;html=1;entryX=0;entryY=0.5;entryDx=0;entryDy=0;fontSize=16;" edge="1" parent="1" source="27" target="34">
                    <mxGeometry relative="1" as="geometry"/>
                </mxCell>
                <mxCell id="27" value="Quiz" style="whiteSpace=wrap;html=1;fontSize=24;fillColor=#008a00;strokeColor=#005700;fontColor=#ffffff;strokeWidth=1;rounded=1;glass=1;" vertex="1" parent="1">
                    <mxGeometry x="480" y="-50" width="120" height="60" as="geometry"/>
                </mxCell>
                <mxCell id="30" value="Admin" style="text;html=1;align=center;verticalAlign=middle;resizable=0;points=[];autosize=1;strokeColor=none;fillColor=none;" vertex="1" parent="1">
                    <mxGeometry x="645" y="310" width="50" height="20" as="geometry"/>
                </mxCell>
                <mxCell id="34" value="Get Certificate" style="whiteSpace=wrap;html=1;fontSize=24;fillColor=#6a00ff;strokeColor=#3700CC;fontColor=#ffffff;strokeWidth=1;rounded=1;glass=1;" vertex="1" parent="1">
                    <mxGeometry x="880" y="170" width="150" height="70" as="geometry"/>
                </mxCell>
                <mxCell id="37" value="If Passed" style="text;html=1;align=center;verticalAlign=middle;resizable=0;points=[];autosize=1;strokeColor=none;fillColor=none;rotation=30;" vertex="1" parent="1">
                    <mxGeometry x="750.0013972081441" y="110.00025403784439" width="70" height="20" as="geometry"/>
                </mxCell>
                <mxCell id="39" style="edgeStyle=none;html=1;entryX=0.5;entryY=0;entryDx=0;entryDy=0;fontSize=16;" edge="1" parent="1" source="38" target="27">
                    <mxGeometry relative="1" as="geometry"/>
                </mxCell>
                <mxCell id="38" value="ML model" style="whiteSpace=wrap;html=1;fontSize=24;fillColor=#6a00ff;strokeColor=#3700CC;fontColor=#ffffff;strokeWidth=1;rounded=1;glass=1;" vertex="1" parent="1">
                    <mxGeometry x="465" y="-200" width="150" height="70" as="geometry"/>
                </mxCell>
                <mxCell id="40" value="Creates dynamic quiz" style="text;html=1;align=center;verticalAlign=middle;resizable=0;points=[];autosize=1;strokeColor=none;fillColor=none;fontSize=16;" vertex="1" parent="1">
                    <mxGeometry x="510" y="-110" width="170" height="20" as="geometry"/>
                </mxCell>
            </root>
        </mxGraphModel>
    </diagram>
</mxfile>